:FULLY-SPECIFIED
:FORCE-ALL-JOINTS-BE-3DOF
:DEGREES
951
root 1.0216 15.1993 32.7438 7.12741 -4.31637 364.804
lfemur 8.12633 2.1353 4.20435
ltibia -0.69505 0 0
lfoot -31.5649 -10.0559 0
ltoes -37.6228 0 0
rfemur -33.3176 -17.6432 -6.92972
rtibia 50.5345 0 0
rfoot -23.6474 6.25967 0
rtoes -41.823 0 0
lowerback -2.06307 -0.406842 1.116
upperback -1.46327 -0.585271 -6.79084
thorax -0.435421 -0.338224 -7.72536
lowerneck -6.52001 0.92638 5.10952
upperneck 0.489977 0.768007 3.03641
head 1.22632 0.45912 0.107432
lclavicle -4.09749e-15 -2.32608e-14 0
lhumerus -59.8126 -44.5888 113.703
lradius 55.1314 0 0
lwrist 26.1067 0 0
lhand 39.37 24.3439 0
lfingers 7.12502 0 0
lthumb 61.8793 36.0492 0
rclavicle -4.09749e-15 -2.32608e-14 0
rhumerus 11.7911 -45.4187 8.01137
rradius 17.2109 0 0
rwrist -17.2702 0 0
rhand -47.1209 -55.1417 0
rfingers 7.12502 0 0
rthumb -19.77 -805.744 0
952
root 1.00623 15.1855 32.7388 7.12473 -4.52302 364.775
lfemur 8.30048 2.3197 4.28335
ltibia -0.767308 0 0
lfoot -31.807 -9.70534 0
ltoes -38.0532 0 0
rfemur -33.5819 -17.8038 -6.80851
rtibia 50.7767 0 0
rfoot -23.9519 6.5157 0
rtoes -41.6935 0 0
lowerback -2.02512 -0.41557 1.14775
upperback -1.44899 -0.598486 -6.7529
thorax -0.443425 -0.344839 -7.70264
lowerneck -6.489 0.990786 5.21294
upperneck 0.402315 0.852301 3.02055
head 1.19227 0.498374 0.0873639
lclavicle -1.68433e-15 -1.88747e-14 0
lhumerus -59.8173 -44.6045 113.821
lradius 55.0689 0 0
lwrist 26.1509 0 0
lhand 39.2093 24.3488 0
lfingers 7.12502 0 0
lthumb 61.7458 36.2235 0
rclavicle -1.68433e-15 -1.88747e-14 0
rhumerus 12.3048 -45.5924 8.76322
rradius 16.5391 0 0
rwrist -17.194 0 0
rhand -47.211 -55.315 0
rfingers 7.12502 0 0
rthumb -19.8533 -805.986 0
953
root 0.9957 15.1746 32.7337 7.10957 -4.69661 364.746
lfemur 8.43554 2.46927 4.35782
ltibia -0.802543 0 0
lfoot -31.9402 -9.51758 0
ltoes -38.2544 0 0
rfemur -33.7957 -17.8974 -6.70342
rtibia 50.9755 0 0
rfoot -24.151 6.71302 0
rtoes -41.5819 0 0
lowerback -1.99188 -0.424911 1.16248
upperback -1.43431 -0.611746 -6.71623
thorax -0.448236 -0.351307 -7.67151
lowerneck -6.45944 1.04186 5.29578
upperneck 0.327992 0.919319 3.01765
head 1.16355 0.529492 0.0743668
lclavicle 8.15441e-16 -1.42536e-14 0
lhumerus -59.7925 -44.5909 113.907
lradius 55.0174 0 0
lwrist 26.1587 0 0
lhand 39.0674 24.369 0
lfingers 7.12502 0 0
lthumb 61.6272 36.3899 0
rclavicle 8.15441e-16 -1.42536e-14 0
rhumerus 12.5125 -45.3358 9.14439
rradius 16.3109 0 0
rwrist -17.0621 0 0
rhand -46.9742 -55.2833 0
rfingers 7.12502 0 0
rthumb -19.6236 -805.988 0
954
root 0.989454 15.1663 32.7285 7.08297 -4.84072 364.716
lfemur 8.53629 2.58767 4.42829
ltibia -0.805382 0 0
lfoot -31.978 -9.47189 0
ltoes -38.2554 0 0
rfemur -33.9645 -17.9316 -6.61265
rtibia 51.1357 0 0
rfoot -24.2577 6.85788 0
rtoes -41.4866 0 0
lowerback -1.96267 -0.434694 1.16226
upperback -1.41908 -0.624911 -6.6805
thorax -0.450061 -0.35757 -7.63278
lowerneck -6.43144 1.08123 5.36065
upperneck 0.265971 0.971094 3.02606
head 1.13976 0.553453 0.0675402
lclavicle 3.36902e-15 -9.45216e-15 0
lhumerus -59.7419 -44.5524 113.966
lradius 54.9756 0 0
lwrist 26.1347 0 0
lhand 38.9416 24.4024 0
lfingers 7.12502 0 0
lthumb 61.5217 36.5492 0
rclavicle 3.36902e-15 -9.45216e-15 0
rhumerus 12.4519 -44.7018 9.20048
rradius 16.4707 0 0
rwrist -16.8806 0 0
rhand -46.4508 -55.0709 0
rfingers 7.12502 0 0
rthumb -19.1197 -805.778 0
955
root 0.98693 15.1601 32.723 7.04598 -4.95889 364.685
lfemur 8.60752 2.67854 4.4953
ltibia -0.780453 0 0
lfoot -31.9342 -9.5475 0
ltoes -38.0853 0 0
rfemur -34.0935 -17.9145 -6.53437
rtibia 51.2619 0 0
rfoot -24.285 6.95655 0
rtoes -41.4062 0 0
lowerback -1.93681 -0.444749 1.14918
upperback -1.40311 -0.637838 -6.64537
thorax -0.449104 -0.363567 -7.58732
lowerneck -6.40513 1.11049 5.41017
upperneck 0.215214 1.00966 3.04413
head 1.12048 0.571235 0.0659833
lclavicle 5.9436e-15 -4.52506e-15 0
lhumerus -59.6691 -44.4936 114.002
lradius 54.9424 0 0
lwrist 26.0834 0 0
lhand 38.8295 24.4465 0
lfingers 7.12502 0 0
lthumb 61.427 36.7023 0
rclavicle 5.9436e-15 -4.52506e-15 0
rhumerus 12.1609 -43.7433 8.97711
rradius 16.9626 0 0
rwrist -16.6554 0 0
rhand -45.6815 -54.702 0
rfingers 7.12502 0 0
rthumb -18.3804 -805.384 0
956
root 0.987571 15.1557 32.7172 6.99966 -5.05468 364.653
lfemur 8.65402 2.74551 4.55939
ltibia -0.732384 0 0
lfoot -31.8224 -9.72368 0
ltoes -37.773 0 0
rfemur -34.1881 -17.8537 -6.46674
rtibia 51.3589 0 0
rfoot -24.2456 7.01532 0
rtoes -41.339 0 0
lowerback -1.91363 -0.454906 1.12532
upperback -1.38625 -0.650385 -6.61053
thorax -0.445573 -0.36924 -7.53597
lowerneck -6.38062 1.13127 5.44694
upperneck 0.174683 1.03706 3.07021
head 1.10529 0.583816 0.0687958
lclavicle 8.5064e-15 4.73125e-16 0
lhumerus -59.5777 -44.4187 114.019
lradius 54.9164 0 0
lwrist 26.0092 0 0
lhand 38.7285 24.4993 0
lfingers 7.12502 0 0
lthumb 61.3412 36.85 0
rclavicle 8.5064e-15 4.73125e-16 0
rhumerus 11.6774 -42.5134 8.51987
rradius 17.7309 0 0
rwrist -16.3927 0 0
rhand -44.7068 -54.2008 0
rfingers 7.12502 0 0
rthumb -17.4446 -804.835 0
